<svg xmlns="http://www.w3.org/2000/svg" width="13" height="13" viewBox="0 0 13 13">
<path fill="#FFFFFF" d="M9.588 1.95l-.406.813c.894 1.137 1.381 2.6 1.381 4.144 0 1.381-.406 2.6-1.056 3.737l.569.65c.894-1.219 1.381-2.762 1.381-4.387-.081-1.869-.731-3.575-1.869-4.957z"/>
<path fill="#FFFFFF" d="M8.775 3.575l-.406.894c.406.731.65 1.544.65 2.437 0 .813-.244 1.625-.569 2.357l.569.731c.487-.894.812-1.95.812-3.006-.081-1.3-.406-2.438-1.056-3.413z"/>
<path fill="#FFFFFF" d="M3.25 4.063H0v4.875h3.25l4.063 3.25V.813z"/>
</svg>
